<svg width="48" height="48" viewBox="0 0 48 48" fill="none" xmlns="http://www.w3.org/2000/svg">
<path d="M37.9376 10.4934C35.3192 9.27278 32.4842 8.38684 29.5311 7.87497C29.5052 7.87414 29.4794 7.879 29.4556 7.8892C29.4318 7.89941 29.4105 7.91471 29.3932 7.93403C29.0389 8.58372 28.6254 9.43028 28.3498 10.08C25.2175 9.60747 22.0321 9.60747 18.8998 10.08C18.6242 9.41059 18.2107 8.58372 17.8367 7.93403C17.817 7.89466 17.7579 7.87497 17.6989 7.87497C14.7457 8.38684 11.9304 9.27278 9.2923 10.4934C9.27262 10.4934 9.25293 10.5131 9.23324 10.5328C3.87824 18.5456 2.40168 26.3418 3.13012 34.0593C3.13012 34.0987 3.1498 34.1381 3.18918 34.1578C6.73293 36.7565 10.1389 38.3315 13.5054 39.375C13.5645 39.3947 13.6236 39.375 13.6432 39.3356C14.4307 38.2528 15.1395 37.1109 15.7498 35.91C15.7892 35.8312 15.7498 35.7525 15.6711 35.7328C14.5489 35.2997 13.4857 34.7878 12.4423 34.1972C12.3636 34.1578 12.3636 34.0397 12.4226 33.9806C12.6392 33.8231 12.8557 33.6459 13.0723 33.4884C13.1117 33.449 13.1707 33.449 13.2101 33.4687C19.9826 36.5597 27.2867 36.5597 33.9804 33.4687C34.0198 33.449 34.0789 33.449 34.1182 33.4884C34.3348 33.6656 34.5514 33.8231 34.7679 34.0003C34.8467 34.0593 34.8467 34.1775 34.7482 34.2168C33.7245 34.8272 32.6417 35.3193 31.5195 35.7525C31.4407 35.7722 31.4211 35.8706 31.4407 35.9297C32.0707 37.1306 32.7795 38.2725 33.5473 39.3553C33.6064 39.375 33.6654 39.3947 33.7245 39.375C37.1107 38.3315 40.5167 36.7565 44.0604 34.1578C44.0998 34.1381 44.1195 34.0987 44.1195 34.0593C44.9857 25.1409 42.6823 17.4037 38.0164 10.5328C37.9967 10.5131 37.977 10.4934 37.9376 10.4934ZM16.7736 29.354C14.7457 29.354 13.0526 27.4837 13.0526 25.1803C13.0526 22.8768 14.7064 21.0065 16.7736 21.0065C18.8604 21.0065 20.5142 22.8965 20.4945 25.1803C20.4945 27.4837 18.8407 29.354 16.7736 29.354ZM30.4957 29.354C28.4679 29.354 26.7748 27.4837 26.7748 25.1803C26.7748 22.8768 28.4286 21.0065 30.4957 21.0065C32.5826 21.0065 34.2364 22.8965 34.2167 25.1803C34.2167 27.4837 32.5826 29.354 30.4957 29.354Z" fill="#5562EB"/>
</svg>
