<svg width="48" height="48" viewBox="0 0 48 48" fill="none" xmlns="http://www.w3.org/2000/svg">
<path d="M7.875 39.375C6.79219 39.375 5.86491 38.9891 5.09316 38.2174C4.32141 37.4456 3.93619 36.519 3.9375 35.4375V11.8125C3.9375 10.7297 4.32338 9.80241 5.09513 9.03066C5.86688 8.25891 6.7935 7.87369 7.875 7.875H39.375C40.4578 7.875 41.3851 8.26088 42.1568 9.03263C42.9286 9.80438 43.3138 10.731 43.3125 11.8125V35.4375C43.3125 36.5203 42.9266 37.4476 42.1549 38.2193C41.3831 38.9911 40.4565 39.3763 39.375 39.375H7.875ZM23.625 25.2492C23.7891 25.2492 23.9617 25.2243 24.1428 25.1744C24.3239 25.1245 24.4958 25.051 24.6586 24.9539L38.5875 16.2422C38.85 16.0781 39.0469 15.8727 39.1781 15.626C39.3094 15.3792 39.375 15.1088 39.375 14.8148C39.375 14.1586 39.0961 13.6664 38.5383 13.3383C37.9805 13.0102 37.4063 13.0266 36.8156 13.3875L23.625 21.6563L10.4344 13.3875C9.84375 13.0266 9.26953 13.0187 8.71172 13.3639C8.15391 13.7091 7.875 14.1927 7.875 14.8148C7.875 15.143 7.94063 15.4304 8.07188 15.6772C8.20313 15.9239 8.4 16.1123 8.6625 16.2422L22.5914 24.9539C22.7555 25.0523 22.9281 25.1265 23.1092 25.1764C23.2903 25.2263 23.4623 25.2505 23.625 25.2492Z" fill="white"/>
</svg>
