<svg width="48" height="48" viewBox="0 0 48 48" fill="none" xmlns="http://www.w3.org/2000/svg">
<path d="M9.5025 20.4487C13.2825 27.8775 19.3725 33.9412 26.8013 37.7475L32.5762 31.9725C33.285 31.2638 34.335 31.0275 35.2538 31.3425C38.1938 32.3137 41.37 32.8388 44.625 32.8388C46.0688 32.8388 47.25 34.02 47.25 35.4638V44.625C47.25 46.0688 46.0688 47.25 44.625 47.25C19.9762 47.25 0 27.2738 0 2.625C0 1.18125 1.18125 0 2.625 0H11.8125C13.2563 0 14.4375 1.18125 14.4375 2.625C14.4375 5.90625 14.9625 9.05625 15.9337 11.9963C16.2225 12.915 16.0125 13.9388 15.2775 14.6738L9.5025 20.4487Z" fill="url(#paint0_linear_130_847)"/>
<defs>
<linearGradient id="paint0_linear_130_847" x1="8.125" y1="5.625" x2="56.625" y2="23.125" gradientUnits="userSpaceOnUse">
<stop stop-color="#E18536"/>
<stop offset="0.9999" stop-color="#B03784"/>
<stop offset="1" stop-opacity="0"/>
</linearGradient>
</defs>
</svg>
